<svg xmlns="http://www.w3.org/2000/svg" viewBox="0 0 1440 986.76"><defs><style>.cls-1{opacity:0.7;}.cls-2{fill:#0063ff;}.cls-3{opacity:0.1;}.cls-4{fill:#b7b7b7;}.cls-5{opacity:0.2;}.cls-6,.cls-7{fill:#fff;}.cls-6{fill-rule:evenodd;}</style></defs><title>hero-bg</title><g id="Main-Slider"><g id="Hero-bg"><g id="hero-bg-2" data-name="hero-bg"><rect class="cls-2" width="999" height="900"/></g><g id="bg-asstes"><g id="circle"><g id="Ellipse_5_copy" data-name="Ellipse 5 copy" class="cls-3"><path class="cls-4" d="M1006.44,74a84.37,84.37,0,0,1-117.88,0h117.88m99-74H789.58Q789,6.68,789,13.5a158.5,158.5,0,0,0,317,0q0-6.83-.58-13.5Z" transform="translate(0 0)"/></g><g id="Ellipse_5" data-name="Ellipse 5" class="cls-3"><path class="cls-4" d="M1440,564.94a158.55,158.55,0,0,0,0,303.12V564.94Z" transform="translate(0 0)"/></g></g><g id="line"><g id="Rectangle_28" data-name="Rectangle 28" class="cls-5"><polygon class="cls-6" points="0 811.03 245.14 563.46 245.04 563.36 0 806.73 0 811.03"/></g><g id="Rectangle_28_copy_3" data-name="Rectangle 28 copy 3" class="cls-5"><polygon class="cls-7" points="773.04 658.36 445.24 983.93 448.07 986.76 773.14 658.46 773.04 658.36"/></g></g></g></g></g></svg>